<svg id="Layer_1" data-name="Layer 1" xmlns="http://www.w3.org/2000/svg" viewBox="0 0 254.84 234.27"><defs><style>.cls-1{fill:#fff;}</style></defs><title>cler_night</title><g id="clear_night"><path class="cls-1" d="M185.31,194.42A106.58,106.58,0,0,1,94,32.89,106.56,106.56,0,1,0,198.86,193.57,108.22,108.22,0,0,1,185.31,194.42Z" transform="translate(-1 -10.88)"/><path class="cls-1" d="M219.08,97.64h0a36.76,36.76,0,0,0-36.76-36.76h0a36.76,36.76,0,0,0,36.76-36.76h0a36.76,36.76,0,0,0,36.76,36.76h0A36.76,36.76,0,0,0,219.08,97.64Z" transform="translate(-1 -10.88)"/><path class="cls-1" d="M154.57,37.11l-2.34-2.9a51.89,51.89,0,0,0-7.87-7.88L141.45,24l2.91-2.33a51.89,51.89,0,0,0,7.87-7.88l2.34-2.9,2.34,2.9a51.89,51.89,0,0,0,7.87,7.88l2.9,2.33-2.9,2.34a51.89,51.89,0,0,0-7.87,7.88Z" transform="translate(-1 -10.88)"/></g></svg>