<svg id="Layer_1" data-name="Layer 1" xmlns="http://www.w3.org/2000/svg" viewBox="0 0 251.95 195.94"><defs><style>.cls-1{fill:#d5d6db;}.cls-2{fill:#fcde00;}</style></defs><title>partlyCloudy_day</title><g id="partlyCloudy_day"><path class="cls-1" d="M209.05,139.5l-6.3,1.16a50.23,50.23,0,1,0-98.69,18.09l-1.25.23a34.08,34.08,0,0,0,0,68.16H209.05a43.82,43.82,0,0,0,0-87.64Z" transform="translate(-0.92 -31.2)"/><rect class="cls-2" x="128.03" y="63.83" width="32.11" height="10.47" transform="translate(-7.56 90.91) rotate(-45)"/><rect class="cls-2" y="85.28" width="32.11" height="10.47"/><rect class="cls-2" x="22.73" y="169.13" width="32.11" height="10.47" transform="translate(-112.86 47.29) rotate(-45)"/><rect class="cls-2" x="33.55" y="53.01" width="10.47" height="32.11" transform="translate(-38.4 16.45) rotate(-45)"/><path class="cls-2" d="M76.16,160.53a41.91,41.91,0,0,1,18.72-8.8c-.12-1.53-.18-3.07-.18-4.6a58.28,58.28,0,0,1,31.62-51.77,42.33,42.33,0,1,0-50.16,65.17Z" transform="translate(-0.92 -31.2)"/><rect class="cls-2" x="85.28" width="10.47" height="32.11"/></g></svg>