<svg id="Layer_1" data-name="Layer 1" xmlns="http://www.w3.org/2000/svg" viewBox="0 0 254.95 209.98"><defs><style>.cls-1{fill:#a0a4ae;}.cls-2{fill:#fff;}</style></defs><title>02n</title><g id="cloudy_night"><path class="cls-1" d="M183.85,128.22l-7.48,1.38A59.66,59.66,0,1,0,59.16,151.08l-1.49.28a40.48,40.48,0,0,0,0,81H183.85a52,52,0,0,0,0-104.1Z" transform="translate(-0.29 -22.34)"/><path class="cls-2" d="M35.35,71.56l-3-3.7a66.12,66.12,0,0,0-10-10l-3.7-3,3.7-3a66.12,66.12,0,0,0,10-10l3-3.69,3,3.69a66.65,66.65,0,0,0,10,10l3.7,3-3.7,3a66.65,66.65,0,0,0-10,10Z" transform="translate(-0.29 -22.34)"/><path class="cls-2" d="M186.46,115.28a64.81,64.81,0,0,1,42.48,18.17,60.85,60.85,0,0,0,26.3-45.68,45.76,45.76,0,0,1-59.06-65.39c-.55,0-1.09,0-1.63,0a60.9,60.9,0,0,0-58.7,44.73A72.93,72.93,0,0,1,186.46,115.28Z" transform="translate(-0.29 -22.34)"/><path class="cls-2" d="M10.28,125,8.5,122.83a39.58,39.58,0,0,0-6-6L.29,115.05l2.21-1.78a39.58,39.58,0,0,0,6-6l1.78-2.21,1.78,2.21a39.58,39.58,0,0,0,6,6l2.21,1.78-2.21,1.78a39.58,39.58,0,0,0-6,6Z" transform="translate(-0.29 -22.34)"/></g></svg>