<svg id="Layer_1" data-name="Layer 1" xmlns="http://www.w3.org/2000/svg" viewBox="0 0 237.78 254.78"><defs><style>.cls-1{fill:#dadbdf;}.cls-2{fill:#6bcff9;}</style></defs><title>09d</title><g id="shower"><path id="Cloudy" class="cls-1" d="M190.3,55.24l-8.13,1.49A64.87,64.87,0,1,0,54.74,80.1l-1.62.29a44,44,0,0,0,0,88H190.3a56.59,56.59,0,0,0,0-113.18Z" transform="translate(-9.11 -0.22)"/><rect class="cls-2" x="35.85" y="183.43" width="12.19" height="52.9" transform="translate(93.67 4.46) rotate(27.81)"/><rect class="cls-2" x="71.94" y="201.8" width="12.19" height="53.44" transform="translate(106.54 -10.23) rotate(27.81)"/><rect class="cls-2" x="120.84" y="182.72" width="12.19" height="53.45" transform="translate(103.28 -35.25) rotate(27.81)"/><rect class="cls-2" x="164.9" y="179.95" width="12.19" height="72.17" transform="translate(111.45 -55.05) rotate(27.81)"/><rect class="cls-2" x="204.61" y="220.82" width="12.19" height="26.6" transform="translate(124.48 -71.49) rotate(27.81)"/></g></svg>