<svg id="Layer_1" data-name="Layer 1" xmlns="http://www.w3.org/2000/svg" viewBox="0 0 237.78 255.29"><defs><style>.cls-1{fill:#dadbdf;}.cls-2{fill:#6bcff9;}</style></defs><title>10d</title><g id="shower"><path id="Cloudy" class="cls-1" d="M190.3,55.24l-8.13,1.49A64.87,64.87,0,1,0,54.74,80.1l-1.62.29a44,44,0,0,0,0,88H190.3a56.59,56.59,0,0,0,0-113.18Z" transform="translate(-9.11 -0.22)"/><rect class="cls-2" x="33.86" y="182.43" width="12.19" height="52.9" transform="translate(92.97 5.27) rotate(27.81)"/><rect class="cls-2" x="68.67" y="181.1" width="12.19" height="75.95" transform="translate(101.75 -9.8) rotate(27.81)"/><rect class="cls-2" x="112.06" y="181.62" width="12.19" height="66.94" transform="translate(104.91 -30.5) rotate(27.81)"/><rect class="cls-2" x="147.41" y="181.15" width="12.19" height="75.14" transform="translate(110.68 -46.58) rotate(27.81)"/><rect class="cls-2" x="188.78" y="182.53" width="12.19" height="51.31" transform="translate(110.54 -67.1) rotate(27.81)"/></g></svg>