<svg id="Layer_1" data-name="Layer 1" xmlns="http://www.w3.org/2000/svg" viewBox="0 0 248.24 255.78"><defs><style>.cls-1{fill:#fff;}.cls-2{fill:#dadbdf;}</style></defs><title>11d</title><polygon class="cls-1" points="100.11 82.03 154.68 82.03 141.43 134.27 173.39 134.27 100.11 255.78 100.11 172.47 74.38 173.25 100.11 82.03"/><path class="cls-2" d="M193,57.66l-8.49,1.56a67.72,67.72,0,1,0-133,24.39l-1.68.31a45.95,45.95,0,1,0,0,91.89H66.17l1.5-5.32L93.4,79.27l2.26-8h77L169.22,85l-9.77,38.53h37.3l-10.06,16.68L165.2,175.81H193a59.08,59.08,0,1,0,0-118.15Z" transform="translate(-3.88 -0.22)"/></svg>