<svg id="Layer_1" data-name="Layer 1" xmlns="http://www.w3.org/2000/svg" viewBox="0 0 228.68 256"><defs><style>.cls-1{fill:#fff;}</style></defs><title>13d</title><polygon class="cls-1" points="228.68 185.92 191.84 164.8 219.85 157.2 216.38 144.41 179.32 154.46 175.58 155.47 127.66 128 175.57 100.51 179.32 101.53 216.38 111.56 219.84 98.77 191.83 91.18 228.66 70.05 222.07 58.55 185.23 79.69 192.82 51.67 180.03 48.21 169.99 85.27 168.97 89.01 120.97 116.56 120.97 61.21 123.71 58.46 150.86 31.31 141.49 21.94 120.97 42.46 120.97 0 107.71 0 107.71 42.46 87.19 21.94 77.82 31.31 104.97 58.46 107.71 61.21 107.71 116.56 58.64 88.43 57.63 84.68 47.58 47.62 34.79 51.09 42.38 79.1 6.59 58.58 0 70.08 35.79 90.6 7.78 98.2 11.25 110.99 48.3 100.94 52.05 99.92 101.02 128 52.06 156.09 48.31 155.08 11.25 145.04 7.79 157.83 35.8 165.42 0.01 185.95 6.61 197.44 42.4 176.91 34.81 204.93 47.6 208.39 57.64 171.33 58.65 167.59 107.71 139.44 107.71 196 104.97 198.74 77.82 225.89 87.19 235.27 107.71 214.74 107.71 256 120.97 256 120.97 214.74 141.49 235.27 150.86 225.89 123.71 198.74 120.97 196 120.97 139.44 168.99 166.97 170 170.72 180.05 207.78 192.84 204.31 185.25 176.3 222.08 197.42 228.68 185.92"/></svg>